# xmcd
# 
# Track frame offsets:
#     150
#     15727
#     30440
#     42578
#     55857
#     70712
#     85966
#     103652
#     135199
#     150780
#     174296
#     196254
#     213756
#     237720
#     250643
#     264520
#     296045
#     324622
# 
# Disc length: 4648
# 
# Revision: 2
# Processed by: cddbd v1.5.2PL0 Copyright (c) Steve Scherf et al.
# Submitted via: fre:ac v1.0.17
# 
DISCID=ec122612
DTITLE=Pearl Jam - Live On Ten Legs
DYEAR=2011
DGENRE=Rock
TTITLE0=Arms Aloft
TTITLE1=World Wide Suicide
TTITLE2=Animal
TTITLE3=Got Some
TTITLE4=State Of Love And Trust
TTITLE5=I Am Mine
TTITLE6=Unthought  Known
TTITLE7=Rearview Mirror
TTITLE8=The Fixer
TTITLE9=Nothing As It Seems
TTITLE10=In Hiding
TTITLE11=Just Breath
TTITLE12=Jeremy
TTITLE13=Public Image
TTITLE14=Spin The Black Circle
TTITLE15=Porch
TTITLE16=Alive
TTITLE17=Yellow Ledbetter
EXTD=
EXTT0=
EXTT1=
EXTT2=
EXTT3=
EXTT4=
EXTT5=
EXTT6=
EXTT7=
EXTT8=
EXTT9=
EXTT10=
EXTT11=
EXTT12=
EXTT13=
EXTT14=
EXTT15=
EXTT16=
EXTT17=
PLAYORDER=
